<?xml version="1.0" standalone="no"?>
<!DOCTYPE svg PUBLIC "-//W3C//DTD SVG 20010904//EN"
 "http://www.w3.org/TR/2001/REC-SVG-20010904/DTD/svg10.dtd">
<svg version="1.0" xmlns="http://www.w3.org/2000/svg"
 width="24.000000pt" height="24.000000pt" viewBox="0 0 24.000000 24.000000"
 preserveAspectRatio="xMidYMid meet">

<g transform="translate(0.000000,24.000000) scale(0.100000,-0.100000)"
fill="#000000" stroke="none">
<path d="M127 224 c-4 -4 -24 -7 -44 -8 -27 -1 -39 -6 -41 -18 -2 -11 3 -18
13 -18 9 0 13 -5 10 -11 -5 -7 -13 -4 -26 7 -18 16 -19 15 -29 -10 -5 -15 -10
-33 -10 -40 0 -20 37 -49 54 -43 8 3 17 -1 20 -9 3 -8 18 -14 32 -14 15 0 25
-3 22 -6 -12 -11 33 -46 50 -39 13 5 14 8 3 14 -9 6 -7 10 9 14 12 3 19 10 15
16 -3 6 -1 11 5 11 7 0 10 6 7 13 -2 6 3 17 12 24 14 11 14 16 -8 58 -19 35
-29 45 -45 43 -15 -2 -22 -12 -24 -30 -2 -16 -7 -28 -12 -28 -9 0 -1 39 11 56
13 17 -9 33 -24 18z m-90 -86 c-3 -8 -6 -5 -6 6 -1 11 2 17 5 13 3 -3 4 -12 1
-19z m87 6 c3 -8 2 -12 -4 -9 -6 3 -10 10 -10 16 0 14 7 11 14 -7z m-40 -20
c3 -8 2 -12 -4 -9 -6 3 -10 10 -10 16 0 14 7 11 14 -7z m106 12 c0 -2 -8 -10
-17 -17 -16 -13 -17 -12 -4 4 13 16 21 21 21 13z"/>
</g>
</svg>
