<?xml version="1.0" standalone="no"?>
<!DOCTYPE svg PUBLIC "-//W3C//DTD SVG 20010904//EN"
 "http://www.w3.org/TR/2001/REC-SVG-20010904/DTD/svg10.dtd">
<svg version="1.0" xmlns="http://www.w3.org/2000/svg"
 width="24.000000pt" height="24.000000pt" viewBox="0 0 24.000000 24.000000"
 preserveAspectRatio="xMidYMid meet">

<g transform="translate(0.000000,24.000000) scale(0.100000,-0.100000)"
fill="#000000" stroke="none">
<path d="M28 203 c-17 -39 -27 -127 -16 -139 4 -3 4 -12 2 -19 -8 -19 12 -28
34 -16 13 7 23 6 32 -2 12 -10 12 -9 2 4 -16 22 -5 49 20 49 15 0 18 -5 13
-22 -7 -22 -6 -22 7 -4 13 16 18 17 39 6 25 -14 49 -35 49 -44 0 -3 -10 -6
-22 -6 -12 0 -19 -3 -15 -6 3 -4 18 -3 32 0 21 5 24 10 16 20 -8 9 -7 21 4 44
13 24 13 35 4 56 -10 22 -18 26 -45 24 -39 -2 -36 -4 -56 47 -14 35 -20 40
-49 43 -31 2 -36 -2 -51 -35z m67 -13 c-3 -5 -20 -10 -36 -10 -18 0 -28 4 -24
10 3 6 20 10 36 10 18 0 28 -4 24 -10z m16 -63 l-21 -42 0 46 c0 50 18 80 33
54 6 -11 2 -30 -12 -58z m-31 33 c0 -5 -13 -10 -30 -10 -16 0 -30 5 -30 10 0
6 14 10 30 10 17 0 30 -4 30 -10z m0 -45 c0 -47 -39 -100 -59 -79 -3 4 0 9 7
11 10 4 8 9 -5 19 -17 13 -17 13 4 14 16 0 21 4 17 15 -7 17 11 21 19 5 3 -6
4 -5 3 2 -4 20 -34 21 -39 1 -3 -12 -5 -8 -6 10 -1 24 3 27 29 27 25 0 30 -4
30 -25z m97 9 c-3 -3 -12 -4 -19 -1 -8 3 -5 6 6 6 11 1 17 -2 13 -5z"/>
<path d="M161 184 c-1 -17 4 -20 24 -16 14 2 22 9 19 14 -3 5 -12 7 -19 4 -8
-3 -16 0 -19 7 -2 7 -5 2 -5 -9z"/>
<path d="M113 13 c9 -2 25 -2 35 0 9 3 1 5 -18 5 -19 0 -27 -2 -17 -5z"/>
</g>
</svg>
