<svg width="20" height="20" viewBox="0 0 20 20" fill="none" xmlns="http://www.w3.org/2000/svg">
<path fill-rule="evenodd" clip-rule="evenodd" d="M10 0.25C4.61522 0.25 0.25 4.61522 0.25 10C0.25 15.3848 4.61522 19.75 10 19.75C15.3848 19.75 19.75 15.3848 19.75 10C19.75 4.61522 15.3848 0.25 10 0.25ZM10 8.875C9.37868 8.875 8.875 9.37868 8.875 10C8.875 10.6213 9.37868 11.125 10 11.125C10.6213 11.125 11.125 10.6213 11.125 10C11.125 9.37868 10.6213 8.875 10 8.875ZM13.375 10C13.375 9.37868 13.8787 8.875 14.5 8.875C15.1213 8.875 15.625 9.37868 15.625 10C15.625 10.6213 15.1213 11.125 14.5 11.125C13.8787 11.125 13.375 10.6213 13.375 10ZM5.5 8.875C4.87868 8.875 4.375 9.37868 4.375 10C4.375 10.6213 4.87868 11.125 5.5 11.125C6.12132 11.125 6.625 10.6213 6.625 10C6.625 9.37868 6.12132 8.875 5.5 8.875Z" fill="#0F172A"/>
</svg>
