<svg width="24" height="24" viewBox="0 0 24 24" fill="none" xmlns="http://www.w3.org/2000/svg">
<g filter="url(#filter0_ii_0_8)">
<path fill-rule="evenodd" clip-rule="evenodd" d="M15.2439 0.470552C13.3597 1.20248 10.6402 1.20248 8.756 0.470547C7.22507 -0.124137 5.51264 -0.179285 3.93258 0.443863C0.598142 1.7589 -0.897416 5.60185 0.553864 9.06851C0.554184 9.06928 0.55417 9.07014 0.553819 9.07089V9.07089L1.00671 9.96377C2.53765 12.982 3.69161 16.1459 4.4471 19.3966L5.16577 22.4889C5.41448 23.3779 6.29335 24 7.30046 24C8.3821 24 9.30373 23.2847 9.47544 22.3119L10.4886 16.5724C10.6079 15.8965 11.2484 15.3994 12 15.3994C12.7516 15.3994 13.3921 15.8965 13.5114 16.5724L14.5246 22.3119C14.6963 23.2847 15.6179 24 16.6995 24C17.7067 24 18.5855 23.3779 18.8342 22.4889L19.5529 19.3966C20.3084 16.1459 21.4624 12.982 22.9933 9.96376L23.4462 9.07089V9.07089C23.4458 9.07014 23.4458 9.06928 23.4461 9.06851C24.8974 5.60185 23.4019 1.75889 20.0674 0.443863C18.4874 -0.179291 16.7749 -0.12414 15.2439 0.470552Z" fill="white"/>
</g>
<defs>
<filter id="filter0_ii_0_8" x="0" y="-9.43676" width="24" height="33.4368" filterUnits="userSpaceOnUse" color-interpolation-filters="sRGB">
<feFlood flood-opacity="0" result="BackgroundImageFix"/>
<feBlend mode="normal" in="SourceGraphic" in2="BackgroundImageFix" result="shape"/>
<feColorMatrix in="SourceAlpha" type="matrix" values="0 0 0 0 0 0 0 0 0 0 0 0 0 0 0 0 0 0 127 0" result="hardAlpha"/>
<feOffset dy="-9.43676"/>
<feGaussianBlur stdDeviation="5.89798"/>
<feComposite in2="hardAlpha" operator="arithmetic" k2="-1" k3="1"/>
<feColorMatrix type="matrix" values="0 0 0 0 0.8125 0 0 0 0 0.423448 0 0 0 0 0.0643229 0 0 0 0.45 0"/>
<feBlend mode="normal" in2="shape" result="effect1_innerShadow_0_8"/>
<feColorMatrix in="SourceAlpha" type="matrix" values="0 0 0 0 0 0 0 0 0 0 0 0 0 0 0 0 0 0 127 0" result="hardAlpha"/>
<feOffset dy="-3.53879"/>
<feComposite in2="hardAlpha" operator="arithmetic" k2="-1" k3="1"/>
<feColorMatrix type="matrix" values="0 0 0 0 1 0 0 0 0 1 0 0 0 0 1 0 0 0 0.25 0"/>
<feBlend mode="normal" in2="effect1_innerShadow_0_8" result="effect2_innerShadow_0_8"/>
</filter>
</defs>
</svg>
