<?xml version="1.0" standalone="no"?>
<!DOCTYPE svg PUBLIC "-//W3C//DTD SVG 20010904//EN"
 "http://www.w3.org/TR/2001/REC-SVG-20010904/DTD/svg10.dtd">
<svg version="1.0" xmlns="http://www.w3.org/2000/svg"
 width="24.000000pt" height="24.000000pt" viewBox="0 0 24.000000 24.000000"
 preserveAspectRatio="xMidYMid meet">

<g transform="translate(0.000000,24.000000) scale(0.100000,-0.100000)"
fill="#000000" stroke="none">
<path d="M4 226 c-3 -8 -4 -25 -2 -38 3 -21 8 -23 53 -23 l50 0 0 35 c0 35 0
35 -48 38 -35 2 -49 -1 -53 -12z"/>
<path d="M134 227 c-3 -8 -4 -39 -2 -68 l3 -54 50 0 50 0 0 65 0 65 -48 3
c-34 2 -49 -1 -53 -11z"/>
<path d="M4 127 c-3 -8 -4 -39 -2 -68 l3 -54 50 0 50 0 0 65 0 65 -48 3 c-34
2 -49 -1 -53 -11z"/>
<path d="M134 66 c-3 -8 -4 -25 -2 -38 3 -21 8 -23 53 -23 l50 0 0 35 c0 35 0
35 -48 38 -35 2 -49 -1 -53 -12z"/>
</g>
</svg>
