<?xml version="1.0" standalone="no"?>
<!DOCTYPE svg PUBLIC "-//W3C//DTD SVG 20010904//EN"
 "http://www.w3.org/TR/2001/REC-SVG-20010904/DTD/svg10.dtd">
<svg version="1.0" xmlns="http://www.w3.org/2000/svg"
 width="24.000000pt" height="24.000000pt" viewBox="0 0 24.000000 24.000000"
 preserveAspectRatio="xMidYMid meet">

<g transform="translate(0.000000,24.000000) scale(0.100000,-0.100000)"
fill="#000000" stroke="none">
<path d="M82 224 c-39 -27 -27 -39 38 -39 40 0 60 4 60 12 0 15 -39 43 -60 43
-9 0 -26 -7 -38 -16z"/>
<path d="M78 172 c-40 -8 -2 -62 44 -62 38 0 81 58 46 61 -50 4 -75 5 -90 1z"/>
<path d="M31 71 c-12 -12 -21 -25 -21 -30 0 -5 -3 -16 -6 -25 -5 -12 0 -16 19
-16 22 0 26 6 32 41 9 50 3 57 -24 30z"/>
<path d="M74 63 c4 -16 8 -36 9 -45 2 -26 57 -25 57 1 0 10 7 24 15 31 16 14
20 40 6 40 -5 0 -16 -10 -25 -22 l-16 -23 -16 23 c-23 31 -38 28 -30 -5z"/>
<path d="M110 80 c0 -5 5 -10 10 -10 6 0 10 5 10 10 0 6 -4 10 -10 10 -5 0
-10 -4 -10 -10z"/>
<path d="M180 76 c0 -8 5 -18 10 -21 6 -3 10 -17 10 -31 0 -17 5 -24 20 -24
23 0 23 -2 9 39 -12 35 -49 63 -49 37z"/>
<path d="M160 19 c0 -24 23 -21 28 4 2 10 -3 17 -12 17 -10 0 -16 -9 -16 -21z"/>
</g>
</svg>
