<?xml version="1.0" standalone="no"?>
<!DOCTYPE svg PUBLIC "-//W3C//DTD SVG 20010904//EN"
 "http://www.w3.org/TR/2001/REC-SVG-20010904/DTD/svg10.dtd">
<svg version="1.0" xmlns="http://www.w3.org/2000/svg"
 width="24.000000pt" height="24.000000pt" viewBox="0 0 24.000000 24.000000"
 preserveAspectRatio="xMidYMid meet">

<g transform="translate(0.000000,24.000000) scale(0.100000,-0.100000)"
fill="#000000" stroke="none">
<path d="M157 234 c-14 -14 -8 -84 8 -90 10 -4 15 -20 15 -50 0 -46 -9 -54
-30 -29 -15 18 -120 21 -138 3 -7 -7 -12 -25 -12 -40 l0 -28 80 0 c64 0 80 3
80 15 0 8 7 15 15 15 19 0 35 31 35 70 0 17 7 38 16 47 9 10 14 29 12 52 -3
33 -6 36 -38 39 -20 2 -39 0 -43 -4z m63 -44 c0 -13 -26 -19 -41 -9 -12 8 -12
10 0 18 15 10 41 4 41 -9z"/>
<path d="M50 175 c-18 -21 -6 -29 20 -15 17 9 25 9 34 0 8 -9 7 -11 -4 -9 -23
4 -62 -11 -57 -24 13 -41 71 -30 73 14 3 45 -39 66 -66 34z"/>
</g>
</svg>
