<?xml version="1.0" standalone="no"?>
<!DOCTYPE svg PUBLIC "-//W3C//DTD SVG 20010904//EN"
 "http://www.w3.org/TR/2001/REC-SVG-20010904/DTD/svg10.dtd">
<svg version="1.0" xmlns="http://www.w3.org/2000/svg"
 width="24.000000pt" height="24.000000pt" viewBox="0 0 24.000000 24.000000"
 preserveAspectRatio="xMidYMid meet">

<g transform="translate(0.000000,24.000000) scale(0.100000,-0.100000)"
fill="#000000" stroke="none">
<path d="M72 215 c-72 -31 -78 -144 -9 -185 18 -11 43 -20 57 -20 14 0 39 9
57 20 70 42 63 154 -11 185 -43 18 -52 18 -94 0z m112 -32 c22 -22 26 -34 24
-67 -3 -35 -6 -40 -23 -37 -26 5 -104 5 -130 0 -17 -3 -20 2 -23 37 -6 84 92
127 152 67z"/>
<path d="M98 179 c-44 -25 -3 -93 42 -69 26 14 26 56 1 70 -23 12 -22 12 -43
-1z"/>
</g>
</svg>
