<?xml version="1.0" standalone="no"?>
<!DOCTYPE svg PUBLIC "-//W3C//DTD SVG 20010904//EN"
 "http://www.w3.org/TR/2001/REC-SVG-20010904/DTD/svg10.dtd">
<svg version="1.0" xmlns="http://www.w3.org/2000/svg"
 width="24.000000pt" height="24.000000pt" viewBox="0 0 24.000000 24.000000"
 preserveAspectRatio="xMidYMid meet">

<g transform="translate(0.000000,24.000000) scale(0.100000,-0.100000)"
fill="#000000" stroke="none">
<path d="M7 203 c-11 -10 -8 -113 3 -113 6 0 10 -7 10 -16 0 -12 5 -14 18 -8
9 4 49 10 87 13 l70 6 3 63 3 62 -94 0 c-51 0 -97 -3 -100 -7z m53 -53 c0 -5
-4 -10 -10 -10 -5 0 -10 5 -10 10 0 6 5 10 10 10 6 0 10 -4 10 -10z m50 0 c0
-5 -4 -10 -10 -10 -5 0 -10 5 -10 10 0 6 5 10 10 10 6 0 10 -4 10 -10z m50 0
c0 -5 -4 -10 -10 -10 -5 0 -10 5 -10 10 0 6 5 10 10 10 6 0 10 -4 10 -10z"/>
<path d="M220 131 c0 -56 -6 -61 -82 -61 -43 0 -67 -4 -63 -10 3 -5 30 -10 58
-10 29 0 58 -4 66 -9 24 -15 41 13 41 68 0 28 -4 51 -10 51 -5 0 -10 -13 -10
-29z"/>
</g>
</svg>
