<?xml version="1.0" standalone="no"?>
<!DOCTYPE svg PUBLIC "-//W3C//DTD SVG 20010904//EN"
 "http://www.w3.org/TR/2001/REC-SVG-20010904/DTD/svg10.dtd">
<svg version="1.0" xmlns="http://www.w3.org/2000/svg"
 width="24.000000pt" height="24.000000pt" viewBox="0 0 24.000000 24.000000"
 preserveAspectRatio="xMidYMid meet">

<g transform="translate(0.000000,24.000000) scale(0.100000,-0.100000)"
fill="#000000" stroke="none">
<path d="M52 177 c-29 -29 -52 -56 -52 -60 0 -19 29 -3 72 40 l48 47 48 -47
c44 -44 72 -59 72 -39 0 5 -9 17 -20 27 -11 10 -20 31 -20 47 0 18 -5 28 -15
28 -8 0 -15 -5 -15 -12 0 -6 -7 -4 -18 5 -29 26 -44 21 -100 -36z"/>
<path d="M66 130 c-51 -57 -49 -120 5 -120 26 0 29 4 29 30 0 23 4 30 20 30
16 0 20 -7 20 -30 0 -26 3 -30 29 -30 30 0 41 14 41 56 0 29 -65 104 -90 104
-10 0 -34 -18 -54 -40z"/>
</g>
</svg>
