<?xml version="1.0" standalone="no"?>
<!DOCTYPE svg PUBLIC "-//W3C//DTD SVG 20010904//EN"
 "http://www.w3.org/TR/2001/REC-SVG-20010904/DTD/svg10.dtd">
<svg version="1.0" xmlns="http://www.w3.org/2000/svg"
 width="24.000000pt" height="24.000000pt" viewBox="0 0 24.000000 24.000000"
 preserveAspectRatio="xMidYMid meet">

<g transform="translate(0.000000,24.000000) scale(0.100000,-0.100000)"
fill="#000000" stroke="none">
<path d="M63 225 c-23 -25 -14 -35 32 -35 30 0 45 4 45 13 0 34 -53 49 -77 22z"/>
<path d="M4 197 c-3 -8 -4 -54 -2 -103 l3 -89 93 -3 92 -3 0 25 c0 24 -1 24
-27 10 -77 -39 -80 10 -6 87 24 25 34 44 31 60 -3 27 -38 40 -38 15 0 -13 -12
-16 -55 -16 -42 0 -55 3 -55 15 0 19 -29 20 -36 2z m81 -57 c-17 -19 -35 -19
-35 1 0 6 4 8 9 4 5 -3 12 -1 16 5 3 5 11 10 17 10 6 0 3 -9 -7 -20z m3 -46
c-9 -10 -21 -13 -29 -8 -9 5 -8 9 7 15 31 12 39 10 22 -7z m-3 -44 c-17 -19
-35 -19 -35 1 0 6 4 8 9 4 5 -3 12 -1 16 5 3 5 11 10 17 10 6 0 3 -9 -7 -20z"/>
<path d="M172 117 c-30 -30 -31 -35 -17 -47 14 -12 21 -9 47 17 19 20 29 37
25 47 -9 23 -19 20 -55 -17z"/>
<path d="M124 56 c-4 -9 -5 -19 -2 -21 2 -2 10 0 18 5 12 7 12 12 3 21 -10 10
-14 9 -19 -5z"/>
</g>
</svg>
