<?xml version="1.0" standalone="no"?>
<!DOCTYPE svg PUBLIC "-//W3C//DTD SVG 20010904//EN"
 "http://www.w3.org/TR/2001/REC-SVG-20010904/DTD/svg10.dtd">
<svg version="1.0" xmlns="http://www.w3.org/2000/svg"
 width="24.000000pt" height="24.000000pt" viewBox="0 0 24.000000 24.000000"
 preserveAspectRatio="xMidYMid meet">

<g transform="translate(0.000000,24.000000) scale(0.100000,-0.100000)"
fill="#000000" stroke="none">
<path d="M0 210 c0 -19 7 -20 120 -20 113 0 120 1 120 20 0 19 -7 20 -120 20
-113 0 -120 -1 -120 -20z m30 0 c0 -5 -4 -10 -10 -10 -5 0 -10 5 -10 10 0 6 5
10 10 10 6 0 10 -4 10 -10z m40 0 c0 -5 -7 -10 -16 -10 -8 0 -12 5 -9 10 3 6
10 10 16 10 5 0 9 -4 9 -10z m30 0 c0 -5 -4 -10 -10 -10 -5 0 -10 5 -10 10 0
6 5 10 10 10 6 0 10 -4 10 -10z"/>
<path d="M0 110 l0 -70 39 0 c22 0 41 -5 44 -12 2 -7 8 -9 13 -5 5 4 2 12 -6
17 -8 5 -12 11 -10 13 3 2 20 14 38 27 26 18 31 25 20 32 -9 7 -8 8 5 4 11 -3
24 -3 30 1 7 5 0 10 -18 15 -26 6 -25 7 7 3 21 -2 40 1 44 6 3 6 12 8 20 5 9
-3 14 2 14 14 0 19 -7 20 -120 20 l-120 0 0 -70z m93 23 c-13 -2 -35 -2 -50 0
-16 2 -5 4 22 4 28 0 40 -2 28 -4z m0 -20 c-13 -2 -35 -2 -50 0 -16 2 -5 4 22
4 28 0 40 -2 28 -4z m0 -20 c-13 -2 -35 -2 -50 0 -16 2 -5 4 22 4 28 0 40 -2
28 -4z m-20 -20 c-13 -2 -33 -2 -45 0 -13 2 -3 4 22 4 25 0 35 -2 23 -4z m-20
-20 c-7 -2 -19 -2 -25 0 -7 3 -2 5 12 5 14 0 19 -2 13 -5z"/>
<path d="M204 129 c-4 -7 0 -17 10 -24 15 -12 13 -15 -21 -36 -36 -23 -37 -24
-14 -27 15 -2 30 3 37 13 11 15 13 15 17 -2 3 -10 5 4 4 31 -2 48 -17 69 -33
45z"/>
<path d="M183 107 c4 -11 3 -16 -3 -12 -12 7 -80 -32 -80 -45 0 -20 21 -19 54
2 41 26 52 47 35 62 -9 8 -10 6 -6 -7z"/>
</g>
</svg>
