<?xml version="1.0" standalone="no"?>
<!DOCTYPE svg PUBLIC "-//W3C//DTD SVG 20010904//EN"
 "http://www.w3.org/TR/2001/REC-SVG-20010904/DTD/svg10.dtd">
<svg version="1.0" xmlns="http://www.w3.org/2000/svg"
 width="24.000000pt" height="24.000000pt" viewBox="0 0 24.000000 24.000000"
 preserveAspectRatio="xMidYMid meet">

<g transform="translate(0.000000,24.000000) scale(0.100000,-0.100000)"
fill="#000000" stroke="none">
<path d="M4 217 c-2 -7 -3 -56 -2 -108 l3 -94 115 0 115 0 0 105 0 105 -113 3
c-87 2 -114 0 -118 -11z m216 -112 l0 -75 -100 0 -100 0 0 75 0 75 100 0 100
0 0 -75z"/>
<path d="M40 134 c0 -11 5 -14 16 -10 14 5 16 1 11 -34 -5 -37 -3 -40 18 -40
21 0 23 3 18 40 -5 35 -3 39 11 34 11 -4 16 -1 16 10 0 12 -10 16 -45 16 -35
0 -45 -4 -45 -16z"/>
<path d="M150 140 c0 -5 11 -10 25 -10 14 0 25 5 25 10 0 6 -11 10 -25 10 -14
0 -25 -4 -25 -10z"/>
<path d="M150 100 c0 -5 11 -10 25 -10 14 0 25 5 25 10 0 6 -11 10 -25 10 -14
0 -25 -4 -25 -10z"/>
<path d="M150 60 c0 -5 11 -10 25 -10 14 0 25 5 25 10 0 6 -11 10 -25 10 -14
0 -25 -4 -25 -10z"/>
</g>
</svg>
