<svg width="22" height="24" viewBox="0 0 22 24" fill="none" xmlns="http://www.w3.org/2000/svg">
<path d="M4.6 2.4V1H5V2.4V3.4H6H15.6H16.6V2.4V1H17V2.4V3.4H18H19.2C19.9677 3.4 20.6 4.03228 20.6 4.8V21.6C20.6 21.9777 20.4469 22.3227 20.2 22.5756V21.6V8.4V7.4H19.2H2.4H1.4V8.4V21.6V22.5802C1.15233 22.3274 1.00009 21.9812 1 21.6003C1 21.6002 1 21.6001 1 21.6L1.012 4.80071V4.8C1.012 4.02246 1.63006 3.4 2.4 3.4H3.6H4.6V2.4ZM19.2 22.6H20.1756C19.9227 22.8469 19.5777 23 19.2 23H2.4C2.01735 23 1.67185 22.8472 1.4198 22.6H2.4H19.2ZM11.8 18.2V14.2H15.8V18.2H11.8Z" fill="#7B8D9E" stroke="#7B8D9E" stroke-width="2"/>
</svg>
